<?xml version="1.0" standalone="no"?>
<!DOCTYPE svg PUBLIC "-//W3C//DTD SVG 1.1//EN" "http://www.w3.org/Graphics/SVG/1.1/DTD/svg11.dtd" >
<svg xmlns="http://www.w3.org/2000/svg" xmlns:xlink="http://www.w3.org/1999/xlink" version="1.1">
<metadata>
Created by FontForge 20201107 at Wed Aug 25 03:53:25 2021
 By 
BabelStone Maritime (c) Andrew West, 2018.
</metadata>
<defs>
<font id="BabelStoneMaritime" horiz-adv-x="2000" >
  <font-face 
    font-family="BabelStone Maritime"
    font-weight="400"
    font-stretch="normal"
    units-per-em="2048"
    panose-1="2 0 6 0 0 0 0 0 0 0"
    ascent="1638"
    descent="-410"
    x-height="1700"
    cap-height="1700"
    bbox="99 -100 2350 1700"
    underline-thickness="200"
    underline-position="-200"
    unicode-range="U+001D-00A0"
  />
<missing-glyph 
d="M1018 651h-79v64q0 41 12.5 69.5t47.5 62.5l37 36q26 25 36 43.5t10 38.5q0 37 -27.5 60t-72.5 23q-32 0 -69 -14.5t-78 -43.5v78q39 25 78.5 36.5t82.5 11.5q77 0 123.5 -40t46.5 -107q0 -32 -14.5 -59t-53.5 -65l-36 -35q-28 -28 -36 -45.5t-8 -42.5v-20v-51zM936 590
h84v-105h-84v105zM1900 1700v-1800h-1800v1800h1800zM1800 1600h-1600v-1600h1600v1600z" />
    <glyph glyph-name=".notdef" 
d="M1018 651h-79v64q0 41 12.5 69.5t47.5 62.5l37 36q26 25 36 43.5t10 38.5q0 37 -27.5 60t-72.5 23q-32 0 -69 -14.5t-78 -43.5v78q39 25 78.5 36.5t82.5 11.5q77 0 123.5 -40t46.5 -107q0 -32 -14.5 -59t-53.5 -65l-36 -35q-28 -28 -36 -45.5t-8 -42.5v-20v-51zM936 590
h84v-105h-84v105zM1900 1700v-1800h-1800v1800h1800zM1800 1600h-1600v-1600h1600v1600z" />
    <glyph glyph-name=".null" horiz-adv-x="0" 
 />
    <glyph glyph-name="glyph2" horiz-adv-x="0" 
 />
    <glyph glyph-name="uni001D" horiz-adv-x="1138" 
 />
    <glyph glyph-name="uni001D" horiz-adv-x="1138" 
 />
    <glyph glyph-name="space" unicode=" " 
 />
    <glyph glyph-name="exclam" unicode="!" horiz-adv-x="2450" 
d="M100 1515l2250 -715l-2250 -715v1430zM558 1110v-271l8 -149h68l8 149v271h-84zM558 596v-105h84v105h-84z" />
    <glyph glyph-name="quotedbl" unicode="&#x22;" horiz-adv-x="2450" 
d="M100 1515l2250 -715l-2250 -715v1430zM716 1110h-72v-230h72v230zM557 1110h-72v-230h72v230z" />
    <glyph glyph-name="numbersign" unicode="#" horiz-adv-x="2450" 
d="M100 1515l2250 -715l-2250 -715v1430zM629 1105h-67l-43 -173h-126v-64h111l-35 -138h-123v-63h107l-43 -172h65l44 172h102l-44 -172h67l43 172h120v63h-103l34 138h117v64h-102l44 173h-66l-44 -173h-101zM672 868l-35 -138h-102l35 138h102z" />
    <glyph glyph-name="dollar" unicode="$" horiz-adv-x="2450" 
d="M100 1515l2250 -715l-2250 -715v1430zM617 781q51 -9 74 -30t23 -60q0 -41 -25.5 -65.5t-71.5 -24.5v180zM576 860q-47 6 -69.5 27t-22.5 56q0 39 24.5 62.5t67.5 25.5v-171zM617 415v126q78 3 126.5 46t48.5 107q0 63 -44.5 103.5t-130.5 53.5v179q33 -2 66.5 -11.5
t68.5 -27.5v72q-34 11 -68 17t-67 8v98h-41v-98q-80 -6 -123.5 -44.5t-43.5 -104.5q0 -62 42 -100t125 -50v-190q-42 1 -84 14.5t-83 39.5v-75q41 -17 82.5 -26.5t83.5 -11.5l1 -125h41z" />
    <glyph glyph-name="percent" unicode="%" 
d="M1900 800l-1800 -900v1800zM634 635q0 33 21.5 55t53.5 22t54.5 -22.5t22.5 -54.5t-22 -54t-55 -22q-32 0 -53.5 22t-21.5 54zM577 635q0 -56 38 -94t94 -38q57 0 95.5 38.5t38.5 93.5q0 27 -10.5 51t-29.5 43t-43 29t-51 10q-55 0 -93.5 -38.5t-38.5 -94.5zM395 696
l435 173l-17 40l-432 -174zM415 964q0 33 22 55t54 22t54 -22.5t22 -54.5t-22 -54t-54 -22q-33 0 -54.5 21.5t-21.5 54.5zM358 964q0 -56 38.5 -94t94.5 -38t94.5 38.5t38.5 93.5q0 27 -10.5 51.5t-28.5 42.5q-19 19 -43 29t-51 10q-56 0 -94.5 -38.5t-38.5 -94.5z" />
    <glyph glyph-name="ampersand" unicode="&#x26;" horiz-adv-x="2070" 
d="M1970 1170l-363 -370l363 -366l-1870 -259v1250zM563 867q-32 43 -44 69.5t-12 51.5q0 32 23 51t63 19q29 0 55 -8t51 -24v76q-29 10 -56.5 15t-54.5 5q-72 0 -113 -36t-41 -99q0 -30 10 -58.5t31 -58.5q-58 -41 -87 -89.5t-29 -105.5q0 -84 58.5 -140t148.5 -56
q44 0 82.5 14t73.5 43l32 -45h88l-70 95q31 36 46.5 86.5t15.5 117.5v16h-68v-3q2 -29 2 -42q0 -43 -8 -74.5t-25 -51.5zM509 824l177 -241q-6 -5 -13.5 -10t-18.5 -11q-18 -10 -37.5 -15t-36.5 -5q-65 0 -106.5 41.5t-41.5 104.5q0 38 19 72t58 64z" />
    <glyph glyph-name="quotesingle" unicode="'" 
d="M1036 1110v-230h-72v230h72z" />
    <glyph glyph-name="parenleft" unicode="(" 
d="M1095 1179q-55 -95 -82.5 -189t-27.5 -190q0 -94 27.5 -188.5t82.5 -189.5h-67q-62 99 -92.5 192t-30.5 186t30.5 187t92.5 192h67z" />
    <glyph glyph-name="parenright" unicode=")" 
d="M905 1179h67q62 -98 92.5 -192t30.5 -187t-30.5 -186.5t-92.5 -191.5h-67q55 96 82.5 190.5t27.5 187.5q0 95 -27.5 189t-82.5 190z" />
    <glyph glyph-name="asterisk" unicode="*" 
d="M1900 1700v-1800h-1800v1800h1800zM1187 1080l-23 42l-139 -85v157h-48v-157l-140 85l-23 -42l148 -80l-148 -81l23 -41l140 84v-156h48v156l139 -84l23 41l-148 81z" />
    <glyph glyph-name="plus" unicode="+" 
d="M1900 1700v-1800h-1800v1800h1800zM1034 1020h-69v-185h-184v-70h184v-185h69v185h185v70h-185v185z" />
    <glyph glyph-name="comma" unicode="," 
d="M968 145h105v-85l-82 -160h-64l41 160v85z" />
    <glyph glyph-name="hyphen" unicode="-" 
d="M1900 1700v-1800h-1800v1800h1800zM892 834v-68h216v68h-216z" />
    <glyph glyph-name="period" unicode="." 
d="M948 126h104v-126h-104v126z" />
    <glyph glyph-name="slash" unicode="/" 
d="M1125 1149h78l-326 -698h-79z" />
    <glyph glyph-name="zero" unicode="0" horiz-adv-x="2450" 
d="M2350 1112v-625l-2250 -312v1250zM601 1055q59 0 87.5 -63t28.5 -192t-28.5 -192t-87.5 -63t-88 63t-29 192t29 192t88 63zM601 1122q-100 0 -150.5 -81.5t-50.5 -240.5t50.5 -240t150.5 -81q98 0 149 81t51 240t-51 240.5t-149 81.5z" />
    <glyph glyph-name="one" unicode="1" horiz-adv-x="2450" 
d="M2350 1112v-625l-2250 -312v1250zM434 562v-71h342v71h-129v548h-83l-140 -31v-76l140 32v-473h-130z" />
    <glyph glyph-name="two" unicode="2" horiz-adv-x="2450" 
d="M2350 1112v-625l-2250 -312v1250zM503 556q91 94 135.5 142t67.5 75q41 48 59.5 88t18.5 80q0 78 -55 126.5t-147 48.5q-40 0 -81.5 -10.5t-83.5 -31.5v-84q47 28 88.5 41.5t78.5 13.5q53 0 83.5 -29.5t30.5 -81.5q0 -32 -14.5 -63.5t-55.5 -82.5q-23 -26 -81 -88.5
t-135 -143.5v-71h376v71h-285z" />
    <glyph glyph-name="three" unicode="3" horiz-adv-x="2450" 
d="M2350 1112v-625l-2250 -312v1250zM671 822q54 14 82.5 48t28.5 86q0 74 -54 120t-145 46q-30 0 -69.5 -6.5t-88.5 -20.5v-77q43 17 82.5 25t75.5 8q56 0 86 -25.5t30 -73.5q0 -45 -32 -70.5t-91 -25.5h-63v-69h63q63 0 100 -31.5t37 -85.5q0 -59 -37 -90t-105 -31
q-41 0 -82 11t-84 33v-84q44 -15 88 -22.5t87 -7.5q102 0 159 48.5t57 134.5q0 61 -32 102.5t-93 57.5z" />
    <glyph glyph-name="four" unicode="4" horiz-adv-x="2450" 
d="M2350 1112v-625l-2250 -312v1250zM649 1034v-327h-195zM635 1110l-249 -392v-79h263v-148h83v148h83v68h-83v403h-97z" />
    <glyph glyph-name="five" unicode="5" horiz-adv-x="2450" 
d="M2350 1112v-625l-2250 -312v1250zM434 1116v-311q30 16 61.5 23.5t65.5 7.5q69 0 108 -37t39 -104t-37.5 -103.5t-106.5 -36.5q-41 0 -79.5 10.5t-76.5 31.5v-86q32 -13 73 -19.5t90 -6.5q103 0 162 56t59 154q0 97 -56.5 154t-152.5 57q-18 0 -36 -3t-36 -9v152h237v70
h-314z" />
    <glyph glyph-name="six" unicode="6" horiz-adv-x="2450" 
d="M2350 1112v-625l-2250 -312v1250zM756 1097q-28 12 -59 18.5t-62 6.5q-114 0 -174.5 -82.5t-60.5 -239.5q0 -166 50 -243.5t158 -77.5q92 0 142.5 55t50.5 155q0 102 -49 156.5t-139 54.5q-46 0 -81 -22t-55 -63q0 116 41 176t121 60q32 0 61.5 -8t55.5 -23v77zM606 835
q56 0 84 -36.5t28 -109.5q0 -71 -28 -108t-84 -37q-53 0 -83.5 38.5t-30.5 106.5t30.5 107t83.5 39z" />
    <glyph glyph-name="seven" unicode="7" horiz-adv-x="2450" 
d="M2350 1112v-625l-2250 -312v1250zM405 1110v-70h297l-215 -549h87l221 583v36h-390z" />
    <glyph glyph-name="eight" unicode="8" horiz-adv-x="2450" 
d="M2350 1112v-625l-2250 -312v1250zM601 785q55 0 86 -31.5t31 -88.5q0 -58 -30.5 -89.5t-86.5 -31.5t-86.5 32t-30.5 89q0 58 30 89t87 31zM528 820q-63 -14 -96 -55.5t-33 -108.5q0 -83 53.5 -130t148.5 -47q94 0 147.5 47t53.5 131q0 66 -33 107.5t-95 55.5
q54 14 83.5 51t29.5 90q0 74 -50 117.5t-136 43.5q-87 0 -137 -43.5t-50 -117.5q0 -53 30 -90t84 -51zM497 953q0 50 26.5 77t77.5 27q50 0 76.5 -26.5t26.5 -77.5q0 -49 -26.5 -75.5t-76.5 -26.5q-51 0 -77.5 26.5t-26.5 75.5z" />
    <glyph glyph-name="nine" unicode="9" horiz-adv-x="2450" 
d="M2350 1112v-625l-2250 -312v1250zM594 766q-56 0 -84 36.5t-28 108.5q0 71 28.5 108t83.5 37q53 0 84 -38.5t31 -106.5t-31 -106.5t-84 -38.5zM445 503q28 -11 59 -17.5t61 -6.5q115 0 175.5 82.5t60.5 238.5q0 167 -50 244.5t-158 77.5q-92 0 -143 -55.5t-51 -154.5
q0 -101 49.5 -156.5t139.5 -55.5q45 0 80.5 22t54.5 64q0 -117 -40.5 -177t-120.5 -60q-32 0 -61.5 8.5t-55.5 23.5v-78z" />
    <glyph glyph-name="colon" unicode=":" 
d="M948 441h104v-126h-104v126zM948 126h104v-126h-104v126z" />
    <glyph glyph-name="semicolon" unicode=";" 
d="M968 145h105v-85l-82 -160h-64l41 160v85zM963 441h104v-126h-104v126z" />
    <glyph glyph-name="less" unicode="&#x3c;" 
d="M1219 932l-353 -132l353 -132v-76l-438 174v68l438 174v-76z" />
    <glyph glyph-name="equal" unicode="=" 
d="M781 751h438v-71h-438v71zM781 920h438v-71h-438v71z" />
    <glyph glyph-name="greater" unicode="&#x3e;" 
d="M781 932v76l438 -174v-68l-438 -174v76l352 132z" />
    <glyph glyph-name="question" unicode="?" 
d="M1017 651h-79v64q0 41 12.5 69.5t47.5 62.5l37 36q26 25 36 43.5t10 38.5q0 37 -27.5 60t-72.5 23q-32 0 -69 -14.5t-78 -43.5v78q39 25 78.5 36.5t82.5 11.5q77 0 123.5 -40t46.5 -107q0 -32 -14.5 -59t-53.5 -65l-36 -35q-28 -28 -36 -45.5t-8 -42.5v-20v-51zM935 590
h84v-105h-84v105z" />
    <glyph glyph-name="at" unicode="@" 
d="M1900 1700v-1800h-1800v1800h1800zM1181 803q0 -54 -26.5 -86t-71.5 -32q-44 0 -71 32t-27 86t27 86t71 32q45 0 71.5 -32t26.5 -86zM1239 633v319q0 93 -52 148.5t-139 55.5q-131 0 -209 -96t-78 -258q0 -164 87 -261t235 -97q24 0 49.5 5t51.5 16l-20 56
q-23 -9 -45.5 -13t-44.5 -4q-114 0 -182.5 81t-68.5 217t60 215.5t162 79.5q61 0 97.5 -39.5t36.5 -104.5v-26q-15 25 -42.5 39.5t-61.5 14.5q-67 0 -110.5 -50t-43.5 -128t43.5 -128.5t110.5 -50.5q34 0 61 14.5t43 40.5v-46h60z" />
    <glyph glyph-name="A" unicode="A" 
d="M1900 1700v-1800h-1800v1800h1800zM1001 1036l88 -317h-177zM950 1110l-190 -619h87l45 161h217l45 -161h87l-190 619h-101z" />
    <glyph glyph-name="B" unicode="B" 
d="M1900 1700v-1800h-1800v1800h1800zM883 786h99q70 0 103 -28t33 -89q0 -58 -31.5 -83.5t-104.5 -25.5h-99v226zM883 1041h98q61 0 87.5 -20.5t26.5 -67.5q0 -52 -27 -75t-87 -23h-98v186zM799 1110v-619h183q109 0 164 42.5t55 127.5q0 67 -34 109.5t-96 51.5q55 8 82 41
t27 90q0 75 -51.5 116t-146.5 41h-183z" />
    <glyph glyph-name="C" unicode="C" 
d="M1900 1700v-1800h-1800v1800h1800zM1194 513v86q-30 -26 -65.5 -39t-71.5 -13q-81 0 -122 63t-41 190q0 128 41 191t122 63q36 0 71 -13.5t66 -39.5v87q-32 16 -65.5 25t-71.5 9q-118 0 -184.5 -85t-66.5 -237q0 -153 66 -237t185 -84q38 0 71.5 8.5t65.5 25.5z" />
    <glyph glyph-name="D" unicode="D" 
d="M1900 1700v-1800h-1800v1800h1800zM924 560h-40v481h40q106 0 147.5 -51.5t41.5 -189.5q0 -136 -42 -188t-147 -52zM926 1110h-127v-619h127q142 0 209 75t67 234t-67 234.5t-209 75.5z" />
    <glyph glyph-name="E" unicode="E" 
d="M1900 1700v-1800h-1800v1800h1800zM812 1110v-619h376v71h-292v224h272v70h-272v184h284v70h-368z" />
    <glyph glyph-name="F" unicode="F" 
d="M1900 1700v-1800h-1800v1800h1800zM818 1110v-619h85v295h254v71h-254v183h280v70h-365z" />
    <glyph glyph-name="G" unicode="G" 
d="M1900 1700v-1800h-1800v1800h1800zM1208 542v267h-170v-69h90v-167q-17 -13 -38 -19.5t-49 -6.5q-82 0 -122 62t-40 191q0 127 41.5 190.5t122.5 63.5q40 0 75 -15.5t69 -47.5v86q-34 22 -69.5 33.5t-74.5 11.5q-118 0 -184.5 -85t-66.5 -237t65.5 -236.5t183.5 -84.5
q49 0 91 16t76 47z" />
    <glyph glyph-name="H" unicode="H" 
d="M1900 1700v-1800h-1800v1800h1800zM801 1110v-619h85v295h229v-295h85v619h-85v-254h-229v254h-85z" />
    <glyph glyph-name="I" unicode="I" 
d="M1900 1700v-1800h-1800v1800h1800zM828 1110v-70h130v-478h-130v-71h344v71h-130v478h130v70h-344z" />
    <glyph glyph-name="J" unicode="J" horiz-adv-x="2450" 
d="M2350 1112v-625l-2250 -312v1250zM424 522q43 -19 82.5 -28t79.5 -9q102 0 146 48.5t44 165.5v417h-243v-70h159v-347q0 -84 -23.5 -115t-82.5 -31q-43 0 -83.5 17t-78.5 50v-98z" />
    <glyph glyph-name="K" unicode="K" horiz-adv-x="2450" 
d="M2350 1112v-625l-2250 -312v1250zM374 1110v-619h85v242l64 68l202 -310h101l-248 366l241 253h-98l-262 -275v275h-85z" />
    <glyph glyph-name="L" unicode="L" horiz-adv-x="2450" 
d="M2350 1112v-625l-2250 -312v1250zM409 1110v-619h383v71h-299v548h-84z" />
    <glyph glyph-name="M" unicode="M" horiz-adv-x="2450" 
d="M2350 1112v-625l-2250 -312v1250zM381 1110v-619h77v547l110 -326h64l111 326v-547h77v619h-112l-108 -315l-107 315h-112z" />
    <glyph glyph-name="N" unicode="N" horiz-adv-x="2450" 
d="M2350 1112v-625l-2250 -312v1250zM402 1110v-619h82v510l209 -510h106v619h-81v-509l-209 509h-107z" />
    <glyph glyph-name="O" unicode="O" horiz-adv-x="2450" 
d="M2350 1112v-625l-2250 -312v1250zM720 800q0 -136 -27.5 -194.5t-91.5 -58.5t-92 58.5t-28 194.5q0 137 28 195.5t92 58.5t91.5 -58.5t27.5 -195.5zM808 800q0 162 -51.5 242t-155.5 80q-105 0 -156.5 -80t-51.5 -242q0 -163 51 -242t157 -79q104 0 155.5 79.5
t51.5 241.5z" />
    <glyph glyph-name="P" unicode="P" horiz-adv-x="2450" 
d="M2350 1112v-625l-2250 -312v1250zM488 1041h97q59 0 91.5 -30t32.5 -86q0 -55 -33 -85.5t-91 -30.5h-97v232zM404 1110v-619h84v249h97q105 0 158 47t53 138t-53.5 138t-157.5 47h-181z" />
    <glyph glyph-name="Q" unicode="Q" horiz-adv-x="2450" 
d="M2350 1112v-625l-2250 -312v1250zM616 480l98 -100l63 41l-83 79q57 30 85.5 104.5t28.5 196.5q0 162 -51.5 242t-155.5 80q-105 0 -156.5 -80t-51.5 -242t51.5 -241.5t155.5 -79.5h8.5h7.5zM720 801q0 -136 -27.5 -194.5t-91.5 -58.5t-92 58.5t-28 194.5q0 137 28 195.5
t92 58.5t91.5 -58.5t27.5 -195.5z" />
    <glyph glyph-name="R" unicode="R" horiz-adv-x="2450" 
d="M100 1515l2250 -715l-2250 -715v1430zM630 783q61 9 94 47.5t33 100.5q0 87 -54 133t-156 46h-173v-619h85v261h79q42 0 67 -19t58 -86l74 -156h89l-84 169q-34 69 -56.5 92t-55.5 31zM459 1041h88q59 0 90.5 -28t31.5 -82q0 -56 -29.5 -83t-89.5 -27h-91v220z" />
    <glyph glyph-name="S" unicode="S" horiz-adv-x="2450" 
d="M100 1515l2250 -715l-2250 -715v1430zM764 1089q-44 16 -83.5 24.5t-75.5 8.5q-92 0 -148 -50.5t-56 -133.5q0 -66 39 -105.5t126 -58.5l44 -11q61 -13 85 -37.5t24 -70.5q0 -51 -35 -79.5t-98 -28.5q-44 0 -86.5 14t-89.5 45v-90q44 -18 88 -27.5t88 -9.5
q104 0 159 46.5t55 134.5q0 75 -40 118.5t-127 64.5l-44 10q-62 14 -84.5 35.5t-22.5 63.5q0 46 34.5 74t93.5 28q39 0 77.5 -12.5t76.5 -37.5v85z" />
    <glyph glyph-name="T" unicode="T" 
d="M1900 1700v-1800h-1800v1800h1800zM764 1110v-70h195v-549h84v549h194v70h-473z" />
    <glyph glyph-name="U" unicode="U" horiz-adv-x="2450" 
d="M2350 1112v-625l-2250 -312v1250zM406 734q0 -93 12 -134t41 -66q27 -25 62.5 -37t79.5 -12t79 12t63 37q29 25 40.5 65.5t11.5 134.5v382h-84v-421q0 -44 -2.5 -63.5t-8.5 -29.5q-14 -24 -39 -36.5t-60 -12.5q-36 0 -61.5 12.5t-38.5 36.5q-6 10 -8.5 29.5t-2.5 64.5
v420h-84v-382z" />
    <glyph glyph-name="V" unicode="V" horiz-adv-x="2450" 
d="M2350 1112v-625l-2250 -312v1250zM601 562l-146 548h-87l182 -619h101l182 619h-87z" />
    <glyph glyph-name="W" unicode="W" 
d="M1900 1700v-1800h-1800v1800h1800zM745 1110l92 -619h80l84 368l83 -368h80l92 619h-81l-60 -504l-71 334h-87l-71 -333l-60 503h-81z" />
    <glyph glyph-name="X" unicode="X" 
d="M1900 1700v-1800h-1800v1800h1800zM781 1110l179 -291l-208 -328h91l163 266l152 -266h91l-199 328l186 291h-91l-139 -233l-136 233h-89z" />
    <glyph glyph-name="Y" unicode="Y" horiz-adv-x="2450" 
d="M100 1515l2250 -715l-2250 -715v1430zM360 1110l198 -341v-278h84v278l199 341h-90l-150 -273l-151 273h-90z" />
    <glyph glyph-name="Z" unicode="Z" horiz-adv-x="2450" 
d="M100 1515l2250 -715l-2250 -715v1430zM399 1110v-70h305l-314 -485v-64h420v71h-333l324 484v64h-402z" />
    <glyph glyph-name="bracketleft" unicode="[" 
d="M1900 1700v-1800h-1800v1800h1800zM912 1179v-758h176v59h-100v639h100v60h-176z" />
    <glyph glyph-name="backslash" unicode="\" 
d="M1900 1700v-1800h-1800v1800h1800zM877 1149h-79l327 -698h78z" />
    <glyph glyph-name="bracketright" unicode="]" 
d="M1900 1700v-1800h-1800v1800h1800zM1088 1179h-176v-60h99v-639h-99v-59h176v758z" />
    <glyph glyph-name="asciicircum" unicode="^" 
d="M1900 1700v-1800h-1800v1800h1800zM1037 1441h-73l-189 -231h74l152 164l152 -164h73z" />
    <glyph glyph-name="underscore" unicode="_" 
d="M1900 1700v-1800h-1800v1800h1800zM1256 350h-511v-33h511v33z" />
    <glyph glyph-name="grave" unicode="`" 
d="M983 1366l117 -156h-64l-136 156h83z" />
    <glyph glyph-name="a" unicode="a" 
d="M1044 716h72v-16q-1 -78 -37 -122t-99 -44q-45 0 -70.5 23.5t-25.5 65.5q0 47 34 70t101 23h25zM1192 748q0 61 -6.5 91.5t-22.5 51.5q-25 34 -66 51t-98 17q-37 0 -76 -8t-81 -25v-76q38 21 78 32.5t79 11.5q60 0 88 -25t29 -81v-12h-103q-101 0 -153 -40.5t-52 -117.5
q0 -67 42 -107t114 -40q53 0 90 19.5t62 61.5v-69h76v265zM1900 1700l-450 -900l450 -900h-1800v1800h1800z" />
    <glyph glyph-name="b" unicode="b" 
d="M1111 715q0 -89 -28 -134.5t-84 -45.5t-84.5 46t-28.5 134t28.5 133.5t84.5 45.5t84 -45.5t28 -133.5zM886 888v241h-76v-646h76v58q19 -34 51 -52t74 -18q83 0 131.5 65.5t48.5 179.5t-48 178.5t-132 64.5q-42 0 -74.5 -18.5t-50.5 -52.5zM1900 1700l-450 -900l450 -900
h-1800v1800h1800z" />
    <glyph glyph-name="c" unicode="c" 
d="M1900 1700v-1800h-1800v1800h1800zM1180 506v80q-27 -26 -58.5 -38.5t-71.5 -12.5q-71 0 -110 47t-39 133t38.5 132.5t110.5 46.5q39 0 69.5 -12t60.5 -39v80q-32 18 -64 27t-66 9q-107 0 -168 -65t-61 -179q0 -115 61 -179.5t168 -64.5q34 0 66.5 9t63.5 26z" />
    <glyph glyph-name="d" unicode="d" 
d="M1900 1700v-1800h-1800v1800h1800zM1115 888q-18 35 -50 53t-74 18q-84 0 -132.5 -64.5t-48.5 -178.5t48.5 -179.5t132.5 -65.5q41 0 73 18t51 52v-58h76v646h-76v-241zM890 715q0 88 28.5 133.5t83.5 45.5t84 -45.5t29 -133.5t-29 -134t-84 -46t-83.5 45.5t-28.5 134.5z
" />
    <glyph glyph-name="e" unicode="e" 
d="M1900 1700v-1800h-1800v1800h1800zM1205 734q0 104 -51 164.5t-140 60.5q-100 0 -159.5 -66.5t-59.5 -177.5q0 -114 61 -179t169 -65q38 0 78.5 9t83.5 26v77q-45 -24 -84.5 -36t-76.5 -12q-72 0 -112 41.5t-40 118.5v2h331v37zM1129 757l-251 -1q6 65 42 101.5t90 36.5
q57 0 87 -35t32 -102z" />
    <glyph glyph-name="f" unicode="f" 
d="M1900 1700v-1800h-1800v1800h1800zM1180 1117h-92q-74 0 -109 -36t-35 -113v-32h-124v-60h124v-405h76v405h160v60h-160v40q0 44 16 60.5t57 16.5h87v64z" />
    <glyph glyph-name="g" unicode="g" 
d="M1900 1700v-1800h-1800v1800h1800zM1115 719q0 -86 -28 -131t-81 -45q-56 0 -86 45t-30 131t29.5 130.5t86.5 44.5q53 0 81 -44.5t28 -130.5zM1191 513v433h-76v-60q-20 37 -51 55t-76 18q-81 0 -129.5 -65.5t-48.5 -174.5t48.5 -174t129.5 -65q46 0 77.5 19t49.5 58v-52
v-4q0 -73 -28 -106.5t-91 -33.5q-27 0 -60 9t-74 28v-75q34 -11 68.5 -17t65.5 -6q97 0 146 54t49 159z" />
    <glyph glyph-name="h" unicode="h" 
d="M1900 1700v-1800h-1800v1800h1800zM1178 759q0 95 -35 141.5t-106 46.5q-48 0 -82.5 -20.5t-55.5 -60.5v251h-76v-646h76v262q0 72 29 109.5t82 37.5q47 0 69 -29.5t22 -91.5v-288h77v288z" />
    <glyph glyph-name="i" unicode="i" 
d="M1900 1700h-1800v-1800h1800v1800zM843 936h195v-406h152v-59h-379v59h151v346h-119v60zM962 1117h76v-97h-76v97z" />
    <glyph glyph-name="j" unicode="j" 
d="M1900 1700v-1800h-1800v1800h1800zM1048 464q0 -53 -18.5 -78.5t-56.5 -25.5h-97v-65h106q68 0 105 43.5t37 125.5v473h-208v-60h132v-413zM1048 1118v-97h76v97h-76z" />
    <glyph glyph-name="k" unicode="k" 
d="M1900 1700v-1800h-1800v1800h1800zM800 1117v-646h79v186l56 54l172 -240h94l-212 290l183 175h-93l-200 -194v375h-79z" />
    <glyph glyph-name="l" unicode="l" 
d="M1900 1700v-1800h-1800v1800h1800zM1018 639v482h-199v-60h122v-422q0 -80 38 -124t106 -44h97v65h-90q-36 0 -55 26t-19 77z" />
    <glyph glyph-name="m" unicode="m" 
d="M1900 1700v-1800h-1800v1800h1800zM1023 888q-12 30 -33 44.5t-53 14.5q-26 0 -46.5 -13t-33.5 -38v40h-70v-465h70v266q0 95 11.5 120.5t41.5 25.5q31 0 42.5 -23.5t11.5 -122.5v-266h70v266q0 95 12.5 120.5t45.5 25.5q29 0 40 -24t11 -122v-266h70v269
q0 120 -23 163.5t-79 43.5q-31 0 -52.5 -14.5t-35.5 -44.5z" />
    <glyph glyph-name="n" unicode="n" 
d="M1900 1700v-1800h-1800v1800h1800zM1178 759q0 95 -35 141.5t-106 46.5q-48 0 -82.5 -20.5t-55.5 -60.5v70h-76v-465h76v262q0 72 29 109.5t82 37.5q47 0 69 -29.5t22 -91.5v-288h77v288z" />
    <glyph glyph-name="o" unicode="o" 
d="M1900 1700v-1800h-1800v1800h1800zM1001 894q58 0 87.5 -45.5t29.5 -133.5t-29.5 -134t-87.5 -46t-88 46t-30 134t30 133.5t88 45.5zM1001 959q-97 0 -148.5 -63t-51.5 -181q0 -119 51.5 -181.5t148.5 -62.5t148 62.5t51 181.5q0 118 -51.5 181t-147.5 63z" />
    <glyph glyph-name="p" unicode="p" 
d="M1900 1700v-1800h-1800v1800h1800zM886 541q18 -34 50 -52t75 -18q84 0 132 64.5t48 177.5q0 115 -48 180.5t-132 65.5q-42 0 -74 -18t-51 -53v60h-76v-642h76v235zM1110 715q0 -89 -27.5 -134.5t-83.5 -45.5t-84.5 46t-28.5 134t28.5 133.5t84.5 45.5t83.5 -45.5
t27.5 -133.5z" />
    <glyph glyph-name="q" unicode="q" 
d="M1900 1700v-1800h-1800v1800h1800zM892 715q0 89 27.5 134t83.5 45q55 0 83.5 -45t28.5 -134q0 -88 -28.5 -133.5t-83.5 -45.5q-56 0 -83.5 45t-27.5 134zM1115 542v-235h76v641h-76v-60q-19 35 -51 53t-73 18q-84 0 -132.5 -65t-48.5 -181q0 -113 49 -177.5t132 -64.5
q42 0 73.5 18.5t50.5 52.5z" />
    <glyph glyph-name="r" unicode="r" 
d="M1900 1700v-1800h-1800v1800h1800zM1165 840v78q-23 14 -47 21.5t-53 7.5q-54 0 -93.5 -26.5t-58.5 -76.5v92h-77v-465h77v231q0 84 37.5 129t108.5 45q31 0 56.5 -8.5t49.5 -27.5z" />
    <glyph glyph-name="s" unicode="s" 
d="M1900 1700v-1800h-1800v1800h1800zM1146 931q-33 14 -67.5 21t-71.5 7q-84 0 -129 -36.5t-45 -103.5q0 -52 30 -83t97 -43l28 -6l3 -1q102 -20 102 -74q0 -36 -27.5 -57t-78.5 -21q-35 0 -74 11.5t-82 32.5v-78q44 -15 81.5 -22t72.5 -7q88 0 136.5 39t48.5 107
q0 52 -29 84.5t-86 42.5l-31 6q-76 15 -95 30.5t-19 46.5q0 34 25.5 51t77.5 17q35 0 68 -9.5t65 -29.5v75z" />
    <glyph glyph-name="t" unicode="t" 
d="M1900 1700v-1800h-1800v1800h1800zM1014 1068h-77v-132h-124v-60h124v-252q0 -84 35.5 -118.5t120.5 -34.5h94v61h-86q-48 0 -67.5 20t-19.5 72v252h173v60h-173v132z" />
    <glyph glyph-name="u" unicode="u" 
d="M1900 1700v-1800h-1800v1800h1800zM823 659q0 -95 34.5 -141.5t106.5 -46.5q47 0 82 20.5t55 61.5v-70h77v464h-77v-263q0 -71 -28.5 -109t-82.5 -38q-46 0 -68.5 29.5t-22.5 92.5v288h-76v-288z" />
    <glyph glyph-name="v" unicode="v" 
d="M1900 1700v-1800h-1800v1800h1800zM786 937l166 -465h98l165 465h-79l-135 -390l-136 390h-79z" />
    <glyph glyph-name="w" unicode="w" 
d="M1900 1700v-1800h-1800v1800h1800zM745 936l109 -465h73l74 255l74 -255h73l108 465h-75l-81 -376l-67 240h-66l-66 -240l-80 376h-76z" />
    <glyph glyph-name="x" unicode="x" 
d="M1900 1700v-1800h-1800v1800h1800zM1208 936h-86l-122 -169l-124 169h-85l167 -223l-182 -242h88l136 186l136 -186h88l-183 242z" />
    <glyph glyph-name="y" unicode="y" 
d="M1900 1700v-1800h-1800v1800h1800zM1096 620l122 316h-80l-137 -364l-137 364h-81l179 -458q-29 -81 -48 -100.5t-53 -19.5h-45v-64h62q38 0 66.5 16.5t47.5 48.5q14 24 55 134q30 78 49 127z" />
    <glyph glyph-name="z" unicode="z" 
d="M1900 1700v-1800h-1800v1800h1800zM836 937v-62h257l-267 -333v-71h348v62h-268l268 334v70h-338z" />
    <glyph glyph-name="braceleft" unicode="{" 
d="M1165 468h-29q-58 0 -76 18t-18 77v103q0 64 -18.5 93.5t-64.5 41.5q46 10 64.5 39.5t18.5 94.5v103q0 59 18 77t76 18h29v60h-27q-103 0 -138 -31t-35 -122v-100q0 -62 -22 -85.5t-81 -23.5h-26v-60h26q58 0 80.5 -24t22.5 -86v-100q0 -91 35 -122t138 -31h27v60z" />
    <glyph glyph-name="bar" unicode="|" 
d="M1035 1225v-850h-71v850h71z" />
    <glyph glyph-name="braceright" unicode="}" 
d="M836 468h29q58 0 76 18.5t18 76.5v103q0 64 18.5 93.5t64.5 41.5q-46 10 -64.5 39.5t-18.5 94.5v103q0 58 -18 76.5t-76 18.5h-29v60h26q104 0 138.5 -31t34.5 -122v-100q0 -62 22 -85.5t81 -23.5h27v-60h-27q-59 0 -81 -24t-22 -86v-100q0 -91 -34.5 -122t-138.5 -31
h-26v60z" />
    <glyph glyph-name="asciitilde" unicode="~" 
d="M1900 1700v-1800h-1800v1800h1800zM1219 1386q-31 -26 -59 -39t-57 -13q-39 0 -88 23q-8 5 -13 6q-31 14 -51.5 18.5t-42.5 4.5q-35 0 -65 -11.5t-62 -36.5v-72q29 26 58.5 38.5t62.5 12.5q21 0 42.5 -5t53.5 -19q4 -2 13 -6q48 -21 85 -21q32 0 62 11.5t61 35.5v73z" />
    <glyph glyph-name="uni00A0" unicode="&#xa0;" 
 />
    <glyph glyph-name="glyph99" 
d="M1900 1700v-1800h-1800v1800h1800z" />
    <glyph glyph-name="glyph100" 
d="M1900 1700l-450 -900l450 -900h-1800v1800h1800z" />
    <glyph glyph-name="glyph101" 
d="M1900 1700l-450 -900l450 -900h-900v1800h900z" />
    <glyph glyph-name="glyph102" 
d="M1900 1700v-360h-1800v360h1800zM1900 260v-360h-1800v360h1800z" />
    <glyph glyph-name="glyph103" 
d="M1900 1340v-360h-1800v360h1800zM1900 620v-360h-1800v360h1800z" />
    <glyph glyph-name="glyph104" 
d="M1900 980v-360h-1800v360h1800z" />
    <glyph glyph-name="glyph105" 
d="M1900 1340v-1080h-1800v1080h1800z" />
    <glyph glyph-name="glyph106" 
d="M1900 1700v-900h-1800v900h1800z" />
    <glyph glyph-name="glyph107" 
d="M1900 800v-900h-1800v900h1800z" />
    <glyph glyph-name="glyph108" 
d="M1000 1700v-1800h-900v1800h900z" />
    <glyph glyph-name="glyph109" 
d="M1900 1700v-1800h-900v1800h900z" />
    <glyph glyph-name="glyph110" 
d="M1900 800l-900 -900l-900 900l900 900z" />
    <glyph glyph-name="glyph111" 
d="M400 1700v-1800h-300v1800h300zM1000 1700v-1800h-300v1800h300zM1600 1700v-1800h-300v1800h300z" />
    <glyph glyph-name="glyph112" 
d="M700 1700v-1800h-300v1800h300zM1300 1700v-1800h-300v1800h300zM1900 1700v-1800h-300v1800h300z" />
    <glyph glyph-name="glyph113" 
d="M1000 350q-186 0 -318 132t-132 318t132 318t318 132t318 -132t132 -318t-132 -318t-318 -132z" />
    <glyph glyph-name="glyph114" 
d="M1900 1700v-600h-1800v600h1800zM1900 500v-600h-1800v600h1800z" />
    <glyph glyph-name="glyph115" 
d="M1900 1100v-600h-1800v600h1800z" />
    <glyph glyph-name="glyph116" 
d="M1000 1700v-900h-900v900h900zM1900 800v-900h-900v900h900z" />
    <glyph glyph-name="glyph117" 
d="M1000 1700h900v-900h-900v900zM100 800h900v-900h-900v900z" />
    <glyph glyph-name="glyph118" 
d="M1673 1700l-673 -675l-673 675h1346zM1900 1473v-1346l-675 675zM1673 -100h-1346l673 675zM100 1473l675 -671l-675 -675v1346z" />
    <glyph glyph-name="glyph119" 
d="M550 1700v-450h-450v450h450zM1450 1700v-450h-450v450h450zM1000 1250v-450h-450v450h450zM1900 1250v-450h-450v450h450zM550 800v-450h-450v450h450zM1450 800v-450h-450v450h450zM1000 350v-450h-450v450h450zM1900 350v-450h-450v450h450z" />
    <glyph glyph-name="glyph120" 
d="M1900 -100h-1800v1800z" />
    <glyph glyph-name="glyph121" 
d="M1900 1700v-1800l-1800 1800h1800z" />
    <glyph glyph-name="glyph122" 
d="M700 1100h600v-600h-600v600z" />
    <glyph glyph-name="glyph123" 
d="M1180 1700h720v-720h-720v720zM100 620h720v-720h-720v720zM820 1700v-720h-720v720h720zM1900 620v-720h-720v720h720z" />
    <glyph glyph-name="glyph124" 
d="M700 1700v-1800h-600v1800h600z" />
    <glyph glyph-name="glyph125" 
d="M1300 1700v-1800h-600v1800h600z" />
    <glyph glyph-name="glyph126" 
d="M1900 1700v-1800h-600v1800h600z" />
    <glyph glyph-name="glyph127" 
d="M1540 1340v-1080h-1080v1080h1080z" />
    <glyph glyph-name="glyph128" 
d="M820 980h360v-360h-360v360z" />
    <glyph glyph-name="glyph129" 
d="M1900 1700l-900 -900l-900 900h1800z" />
    <glyph glyph-name="glyph130" 
d="M1900 -100h-1800l900 900z" />
    <glyph glyph-name="glyph131" 
d="M1000 800l-900 -900v1800z" />
    <glyph glyph-name="glyph132" 
d="M1900 1700v-1800l-900 900z" />
    <glyph glyph-name="glyph133" 
d="M820 1700l-720 -720v360l360 360h360zM1540 1700l-1440 -1440v360l1080 1080h360zM1900 1340l-1440 -1440h-360l1800 1800v-360zM1900 980v-360l-720 -720h-360zM1900 260v-360h-360z" />
    <glyph glyph-name="glyph134" 
d="M460 1460h120v-120h-120v-120h-120v120h-120v120h120v120h120v-120zM1660 1460h120v-120h-120v-120h-120v120h-120v120h120v120h120v-120zM460 260h120v-120h-120v-120h-120v120h-120v120h120v120h120v-120zM1660 260h120v-120h-120v-120h-120v120h-120v120h120v120h120
v-120zM1060 860h120v-120h-120v-120h-120v120h-120v120h120v120h120v-120z" />
    <glyph glyph-name="glyph135" 
d="M1126 1700l-1026 -1028v514l512 514h514zM1900 1442l-1542 -1542h-258v257l1540 1543h260v-258zM1900 927v-514l-513 -513h-514z" />
    <glyph glyph-name="glyph136" 
d="M700 1700v-1800h-600v1800h600zM1900 1700v-1800h-600v1800h600z" />
    <glyph glyph-name="glyph137" horiz-adv-x="2450" 
d="M2350 1112v-625l-2250 -312v1250z" />
    <glyph glyph-name="glyph138" horiz-adv-x="2450" 
d="M725 486q-127 0 -217 92t-90 222t90 222t217 92t217 -92t90 -222t-90 -222t-217 -92z" />
    <glyph glyph-name="glyph139" horiz-adv-x="2450" 
d="M100 1425l750 -105v-1040l-750 -105v1250z" />
    <glyph glyph-name="glyph140" horiz-adv-x="2450" 
d="M850 1320l750 -104v-832l-750 -104v1040z" />
    <glyph glyph-name="glyph141" horiz-adv-x="2450" 
d="M1600 1216l750 -104v-624l-750 -104v832z" />
    <glyph glyph-name="glyph142" horiz-adv-x="2450" 
d="M100 1425l1125 -156v-937l-1125 -157v1250z" />
    <glyph glyph-name="glyph143" horiz-adv-x="2450" 
d="M1225 1269l1125 -157v-624l-1125 -156v937z" />
    <glyph glyph-name="glyph144" horiz-adv-x="2450" 
d="M2350 1112v-312h-2250v625z" />
    <glyph glyph-name="glyph145" horiz-adv-x="2450" 
d="M2350 800v-313l-2250 -312v625h2250z" />
    <glyph glyph-name="glyph146" horiz-adv-x="2450" 
d="M1225 800h-1125v625l1125 -156v-469z" />
    <glyph glyph-name="glyph147" horiz-adv-x="2450" 
d="M1225 1269l1125 -157v-312h-1125v469z" />
    <glyph glyph-name="glyph148" horiz-adv-x="2450" 
d="M1225 800v-468l-1125 -157v625h1125z" />
    <glyph glyph-name="glyph149" horiz-adv-x="2450" 
d="M1225 332v468h1125v-312z" />
    <glyph glyph-name="glyph150" horiz-adv-x="2450" 
d="M568 956h-468v469l468 -65v-404zM880 1317l1470 -205v-156h-1470v361zM568 644v-404l-468 -65v469h468zM880 283v361h1470v-156z" />
    <glyph glyph-name="glyph151" horiz-adv-x="2450" 
d="M100 1425l450 -62v-1126l-450 -62v1250zM1000 1300l450 -63v-874l-450 -63v1000zM1900 1175l450 -63v-624l-450 -63v750z" />
    <glyph glyph-name="glyph152" horiz-adv-x="2450" 
d="M100 1515l2250 -715l-2250 -715v1430z" />
    <glyph glyph-name="glyph153" horiz-adv-x="2450" 
d="M100 320l1500 480l-1500 480v235l2250 -715l-2250 -715v235z" />
    <glyph glyph-name="glyph154" horiz-adv-x="2450" 
d="M1599 1038l751 -238l-745 -238h-1505v476h1499z" />
    <glyph glyph-name="glyph155" horiz-adv-x="2450" 
d="M574 1038l2 -476h-476v476h474z" />
    <glyph glyph-name="glyph156" horiz-adv-x="2450" 
d="M100 1515l1125 -357v-715l-1125 -358v1430z" />
    <glyph glyph-name="glyph157" horiz-adv-x="2450" 
d="M456 198l-357 -113v358h357v-245zM1170 425l-356 -114v132h356v-18zM1170 1174l55 -17h-55v17zM813 1157h-357v245l357 -114v-131zM456 800h-357v357h357v-357zM2241 835l108 -35h-108v35zM1884 800h-357v262l357 -114v-148zM1170 800h-357l1 357h356v-357zM2241 766
l-357 -114v148h357v-34zM1527 539l-302 -96h-55v357h357v-261zM814 443h-358v357h357z" />
    <glyph glyph-name="glyph158" 
d="M1900 800l-1800 -900v1800z" />
    <glyph glyph-name="glyph159" horiz-adv-x="2070" 
d="M1970 1170l-363 -370l363 -366l-1870 -259v1250z" />
    <glyph glyph-name="glyph160" horiz-adv-x="2070" 
d="M1970 1170l-181 -185l-1689 220v220zM1789 617l181 -183l-1870 -259v220z" />
    <glyph glyph-name="glyph161" 
d="M1900 1700v-1573l-1573 1573h1573zM1673 -100h-1573v1573z" />
    <glyph glyph-name="glyph162" 
d="M100 1700h1574l-1574 -1573v1573zM327 -100l1573 1573v-1573h-1573z" />
    <glyph glyph-name="glyph163" horiz-adv-x="2450" 
d="M100 1425l450 -62v-1126l-450 -62v1250zM1000 1300l450 -63v-874l-450 -63v1000zM1900 1175l450 -63v-624l-450 -63v750z" />
    <glyph glyph-name="glyph164" horiz-adv-x="2450" 
d="M1975 800v364l375 -52v-624l-376 -52zM475 1373l375 -52v-1042l-375 -52v1146zM1225 1269l375 -52v-834l-375 -52v938z" />
    <glyph glyph-name="glyph165" horiz-adv-x="2450" 
d="M2350 1009v-417h-2250v417h2250z" />
    <glyph glyph-name="glyph166" horiz-adv-x="2450" 
d="M663 800h-563v625l563 -78v-547zM1788 800h-563v469l563 -78v-391zM1788 409v391h562v-312zM1225 800v-469l-562 -78v547h562z" />
    <glyph glyph-name="glyph167" horiz-adv-x="2450" 
d="M828 383q-173 0 -295 122t-122 295t122 295.5t295 122.5t295.5 -122.5t122.5 -295.5t-122.5 -295t-295.5 -122zM1766 592q-86 0 -147 61t-61 147t61 147.5t147 61.5t147.5 -61.5t61.5 -147.5t-61.5 -147t-147.5 -61z" />
    <glyph glyph-name="glyph168" 
d="M357 1700v-1800h-257v1800h257zM871 1700v-1800h-257v1800h257zM1386 1700v-1800h-257v1800h257zM1900 1700v-1800h-257v1800h257z" />
    <glyph glyph-name="glyph169" horiz-adv-x="2450" 
d="M2350 1112v-104h-2250v417z" />
    <glyph glyph-name="glyph170" horiz-adv-x="2450" 
d="M2350 592v-105l-2250 -312v417h2250z" />
    <glyph glyph-name="glyph171" 
d="M1900 1700v-450h-1800v450h1800z" />
    <glyph glyph-name="glyph172" 
d="M1900 1250v-450h-1800v450h1800z" />
    <glyph glyph-name="glyph173" 
d="M1900 800v-450h-1800v450h1800z" />
    <glyph glyph-name="glyph174" 
d="M1900 350v-450h-1800v450h1800z" />
    <glyph glyph-name="glyph175" 
d="M1000 1700v-900h-900v900h900z" />
    <glyph glyph-name="glyph176" 
d="M1000 1700h900v-900h-900v900z" />
    <glyph glyph-name="glyph177" 
d="M100 800h900v-900h-900v900z" />
    <glyph glyph-name="glyph178" 
d="M1900 800v-900h-900v900h900z" />
    <glyph glyph-name="glyph179" horiz-adv-x="2450" 
d="M850 1276l750 -237v-478l-750 -237v952z" />
    <glyph glyph-name="glyph180" 
d="M1250 1050h450v-500h-450v-450h-500v450h-450v500h450v450h500v-450z" />
    <glyph glyph-name="glyph181" 
d="M1556 387q-32 -42 -71 -81q-206 -206 -496 -206q-289 0 -494 205t-205 495t205 495t494 205q290 0 496 -205q39 -40 71 -82q-164 156 -342 156q-235 0 -401.5 -167t-166.5 -402t166.5 -402t401.5 -167q178 0 342 156z" />
    <glyph glyph-name="glyph182" 
d="M728 1213v-63q0 -58 32 -94h4q3 48 3 72v40q0 67 65 146h4q0 -22 -49 -139q-5 -25 -5 -56v-45q0 -47 -24 -47q-18 -9 -18 -27v-2q0 -39 101 -75q16 -5 58 -53q23 -18 76 -18q128 0 128 13q57 67 83 67q72 33 72 68q0 20 -52 31v63q2 49 14 49q7 -1 7 -18v-35q0 -32 9 -32
q36 16 36 106q2 0 2 22q0 173 -142 233q-44 21 -83 21h-56q-134 0 -206 -88q-59 -55 -59 -139zM899 1168q63 -10 63 -61q0 -62 -83 -92h-20q-32 0 -36 61v2q11 90 76 90zM1099 1168h2q47 0 65 -54q9 -24 9 -56q-18 -43 -56 -43q-50 0 -83 88v11q0 37 63 54zM998 1054h2
q27 -49 27 -106v-4q0 -5 -5 -5q-17 14 -29 14q-2 0 -36 -16l-2 4q19 87 43 113zM816 890q-5 -9 -5 -16q0 -141 63 -193q30 -47 97 -47q120 0 134 29q70 66 70 137q2 19 5 65q-3 9 -3 16h-2q-61 -18 -61 -90q-14 -79 -76 -79q0 -2 -16 -2h-44q-79 0 -95 59q-16 94 -31 94
q-23 27 -36 27zM367 695q0 -59 112 -70q136 -16 436 -168q246 -137 298 -155q24 0 146 -108q45 -34 74 -34q43 0 83 65l9 7h18q54 13 54 47v21q0 32 -47 47q-24 8 -213 22q-79 13 -232 106q-215 121 -392 215q-75 50 -126 130q-25 32 -47 32q-49 0 -88 -61q-50 -20 -58 -38
q-27 -31 -27 -58zM910 825q3 -23 16 -23q9 10 9 25q0 1 -5 16h-9q-11 -7 -11 -18zM951 822v-20h18q0 11 2 11q-2 6 -5 30h-4q-7 0 -11 -21zM1018 816v-3l2 -11h11q9 3 9 23q-4 18 -9 18h-2q-11 -10 -11 -27zM1054 825q0 -17 7 -18h6q9 3 9 15q0 21 -15 21q-7 -2 -7 -18z
M984 820v-13l20 -3l3 5v13q0 13 -9 16h-7q-7 -1 -7 -18zM1025 542v-5l105 -60q271 109 415 119q77 10 77 29q11 13 11 38q0 51 -79 97q-2 1 -20 40q-28 27 -60 27h-12q-24 0 -69 -70q-70 -74 -160 -114q-160 -70 -208 -101zM917 746v-4q0 -4 9 -9h2q5 0 7 11q-3 16 -9 16
q-9 -3 -9 -14zM951 742q0 -12 9 -16h2q3 0 7 7v11q0 9 -9 16q-9 -2 -9 -18zM984 753v-18q0 -12 9 -16h5q13 14 13 32q-3 9 -15 9q-12 -2 -12 -7zM1036 744v-5q0 -11 9 -13q16 7 16 20q0 11 -9 14q-16 0 -16 -16zM508 706h3v-3l-3 -8q0 -9 83 -34q34 -15 45 -27q-4 -2 -6 -2
q-53 20 -131 42l-6 7q0 11 15 25zM1496 683h5q0 -7 4 -27q0 -23 -72 -31q0 -3 -63 -16l-2 5q21 15 112 33q16 10 16 36zM587 389q-38 0 -155 3q-65 -15 -65 -61q0 -42 67 -63q11 -5 30 -47q28 -34 60 -34q53 0 173 90q46 28 278 126v2q-5 1 -112 67q-147 -83 -276 -83z
M473 353l4 -6q-5 -14 -18 -14h-7q-4 0 -4 5v4q10 11 25 11zM1281 320q24 -14 123 -92l11 -3q21 5 34 5h7v-7q0 -6 -27 -13h-9q-20 0 -108 78q-33 19 -38 27q0 5 7 5zM1498 308h12q12 0 15 -8v-3q0 -3 -7 -6h-2q-13 0 -22 13q0 4 4 4zM506 300h2q4 -1 27 -43q8 -5 14 -5
q5 0 31 9l3 -4q-10 -23 -43 -23h-14q-12 0 -20 66z" />
  </font>
</defs>
</svg>
